<svg xmlns="http://www.w3.org/2000/svg" viewBox="0 0 841.9 595.3">
	<g fill="#61DAFB">
		<path d="M666.3 296.5c0 32.3-26.2 58.5-58.5 58.5s-58.5-26.2-58.5-58.5 26.2-58.5 58.5-58.5 58.5 26.2 58.5 58.5z"/>
		<path d="M520.5 78.1c-30.6 17.7-63.9 43.5-96.9 75.7-33.1-32.2-66.4-58-96.9-75.7-39.2-22.7-72.2-30.3-92.9-21.2-20.3 8.8-30.6 32.1-28.6 64.5 2 31.6 15 68.7 36.3 106.3-21.3 37.6-34.3 74.7-36.3 106.3-2 32.4 8.3 55.7 28.6 64.5 20.7 9.1 53.7 1.5 92.9-21.2 30.6-17.7 63.9-43.5 96.9-75.7 33.1 32.2 66.4 58 96.9 75.7 39.2 22.7 72.2 30.3 92.9 21.2 20.3-8.8 30.6-32.1 28.6-64.5-2-31.6-15-68.7-36.3-106.3 21.3-37.6 34.3-74.7 36.3-106.3 2-32.4-8.3-55.7-28.6-64.5-20.7-9.1-53.7-1.5-92.9 21.2zM421 351.5c-33.4 0-60.5-27.1-60.5-60.5s27.1-60.5 60.5-60.5 60.5 27.1 60.5 60.5-27.1 60.5-60.5 60.5z"/>
	</g>
</svg>